<?xml version="1.0" encoding="iso-8859-1"?>
<!-- Generator: Adobe Illustrator 19.2.0, SVG Export Plug-In . SVG Version: 6.00 Build 0)  -->
<svg version="1.1" xmlns="http://www.w3.org/2000/svg" xmlns:xlink="http://www.w3.org/1999/xlink" x="0px" y="0px"
	 viewBox="0 0 61.867 77.507" style="enable-background:new 0 0 61.867 77.507;" xml:space="preserve">
<g id="Tenicana_x5F_Foods">
	<path style="fill-rule:evenodd;clip-rule:evenodd;" d="M43.568,24.724c0.683,0.078,1.124-0.471,1.728-0.642
		c2.111-0.596,4.121,0.463,5.232,1.481c2.093,3.036,3.862,6.339,5.727,9.577c1.625,2.824,3.283,5.627,4.936,8.491
		c0.221,0.383,0.608,0.784,0.493,1.283c-0.755,0.287-1.509-0.189-2.221-0.395c-3.711-1.069-7.447-2.089-11.305-3.061
		c-1.503-0.378-2.998-1.025-4.591-1.037c-0.29,0.594-0.272,1.335-0.297,2.024c-0.073,2.113,0.001,4.416,0,6.713
		c0,2.333,0.002,4.651-0.099,6.861c-0.033,0.733,0.105,1.475,0.099,2.172c-0.006,0.757-0.319,1.8,0.198,2.37
		c0.822,0.128,1.601-0.264,2.369-0.445c4.561-1.07,9.119-2.34,13.724-3.504c0.712-0.18,1.51-0.564,2.271-0.296
		c0.148,0.509-0.22,0.993-0.444,1.382c-3.032,5.246-6.104,10.465-9.133,15.895c-1.199,2.151-3.266,4.563-6.96,3.752
		c-1.643-0.361-3.12-1.481-4.492-2.32c-4.131-2.529-8.464-5.333-12.538-7.849c-1.891-1.149-4.266-1.87-4.591-4.442
		c-0.126-0.987-0.05-2.14-0.05-3.258c0-1.104,0-2.252,0-3.406c0-5.469-0.147-10.984-0.148-16.685c0-1.837,0.043-3.373-0.839-4.295
		c-1.386-1.172-3.404-1.544-5.331-2.122c-5.255-1.579-10.657-2.957-16.044-4.443c-0.908-0.25-1.857-0.393-0.79-1.037
		c5.43-3.275,10.958-6.201,16.537-9.33c0.831-0.466,1.675-1.024,2.469-1.333c0.285-0.111,0.626-0.218,0.889-0.247
		c1.303-0.145,2.242,0.494,3.209,0.79c0.458-0.635,0.246-1.735,0.246-2.715c0.001-1.294-0.024-2.506,0.494-3.356
		c0.839-1.377,2.859-2.295,4.344-3.159c1.701-0.99,3.292-1.758,4.788-2.666c2.332-1.415,4.721-2.731,7.158-4.097
		c0.811-0.455,1.571-1.016,2.369-1.332c0.905-0.359,0.501,1.69,0.494,2.122c-0.063,3.587,0.075,7.417-0.05,11.403
		c-0.088,2.811-0.099,5.611-0.099,8.589C43.321,23.065,43.198,24.003,43.568,24.724z M39.619,6.262
		c-1.117,0.444-2.103,1.196-3.061,1.777c-0.963,0.583-1.99,1.115-3.061,1.777c-1.623,1.004-4.711,2.334-5.628,3.998
		c-0.717,1.3-0.395,3.943-0.395,5.874c0,3.802,0,7.649,0,11.354c0,0.693-0.152,1.477,0.197,2.123
		c1.159-0.272,2.151-0.956,3.159-1.53c2.037-1.16,4.091-2.182,6.072-3.308c0.976-0.555,2.065-1.006,2.862-1.826
		c0.119-4.525,0.297-9.21,0.297-13.92c0-1.715,0.08-3.44,0.148-4.986c0.021-0.444,0.143-1.105-0.345-1.382
		C39.727,6.219,39.712,6.225,39.619,6.262z M23.774,26.896c0-1.347,0-2.739,0-3.999c-0.039-0.011-0.058-0.042-0.05-0.099
		c-0.435-1.408-2.396-2.476-4.048-1.876c-0.831,0.302-1.702,0.904-2.566,1.382c-0.837,0.462-1.633,0.957-2.518,1.431
		c-1.243,0.667-3.131,1.67-4.393,2.518c-1.08,0.725,0.148,0.94,1.086,1.185c2.956,0.771,5.889,1.572,8.737,2.37
		c1.146,0.32,2.242,0.895,3.505,0.839C23.94,29.643,23.774,28.232,23.774,26.896z M53.392,37.657
		c-1.329-2.145-2.701-4.26-3.999-6.368c-0.705-1.146-1.385-2.815-2.517-3.307c-1.401-0.608-2.849,0.574-3.9,1.135
		c-2.46,1.313-4.789,2.362-7.108,3.653c-0.434,0.242-1.056,0.403-1.234,0.938c0.663,0.461,1.502,0.584,2.271,0.79
		c0.808,0.216,1.613,0.458,2.419,0.691c4.051,1.175,8.17,2.166,12.192,3.308c0.808,0.229,1.607,0.63,2.469,0.543
		C54.05,38.521,53.651,38.077,53.392,37.657z M39.767,42.051c0.04-0.867,0.13-2.36-0.147-2.765c-0.277-0.404-1.438-0.561-2.172-0.74
		c-0.82-0.2-1.622-0.411-2.32-0.592c-2.433-0.632-6.003-2.255-7.306,0.247c-0.62,1.189-0.297,3.867-0.297,5.776
		c0.001,2.178,0.021,4.255,0.05,6.072c0.047,3.122-0.03,5.916,0.148,9.033c0.06,1.068-0.038,2.187,0.197,2.913
		c0.567,1.749,2.53,2.125,4.591,1.629c1.526-0.368,3.143-0.875,4.591-1.234c0.752-0.187,1.545-0.31,2.122-0.79
		C39.666,55.319,39.473,48.53,39.767,42.051z M51.861,62.29c-4.893,1.168-9.79,2.439-14.611,3.653
		c-0.784,0.197-1.711,0.322-2.222,0.839c0.576,0.748,1.554,1.188,2.468,1.777c1.685,1.085,3.611,2.127,5.331,3.159
		c0.883,0.53,1.837,1.275,2.765,1.531c2.403,0.663,3.394-1.539,4.196-2.863c0.596-0.983,1.201-1.872,1.678-2.863
		c0.602-0.9,1.169-1.859,1.729-2.813c0.559-0.954,1.286-1.872,1.53-2.913C53.843,61.659,52.872,62.048,51.861,62.29z"/>
</g>
<g id="Layer_1">
</g>
</svg>
